#!OML:ASF F:\VICON\USERDATA\Patient Classification 1\PLAYGROUND\JustinFriday\JustinFriday.ASF
:FULLY-SPECIFIED
:DEGREES
3200
root 0.690275 17.0937 27.9274 -178.926 -159.142 -179.035
lowerback 11.196 1.1486 -2.97099
upperback 3.62367 1.29291 3.88648
thorax -2.64113 0.61825 5.57933
lowerneck -5.12889 3.0779 -2.60803
upperneck 27.8466 4.87955 -1.23049
head 9.58856 1.81765 0.476003
rclavicle 1.63003e-014 -1.90833e-014
rhumerus -42.8865 -30.6985 -48.9968
rradius 19.07
rwrist 2.15874
rhand -14.4863 -24.7142
rfingers 7.12502
rthumb 11.6602 -54.3698
lclavicle 1.63003e-014 -1.90833e-014
lhumerus -38.11 11.3993 78.6802
lradius 37.2318
lwrist 6.1227
lhand -19.3829 -3.69296
lfingers 7.12502
lthumb 6.9355 26.1734
rfemur -34.583 -0.440324 16.8382
rtibia 33.1094
rfoot -5.56043 1.67916
rtoes -0.991787
lfemur 11.4246 -5.78561 -25.4568
ltibia 30.2835
lfoot -8.28653 -13.5553
ltoes 11.295
3201
root 0.611208 17.1267 28.0817 -178.639 -159.587 -179.787
lowerback 11.2865 1.10968 -2.24613
upperback 3.51088 1.33086 4.14557
thorax -2.80491 0.641942 5.43227
lowerneck -5.15388 3.13215 -2.48709
upperneck 27.9976 4.947 -1.22859
head 9.65029 1.85917 0.464728
rclavicle 3.65764e-014 5.56597e-014
rhumerus -41.6635 -29.9877 -50.3188
rradius 19.169
rwrist -0.0633961
rhand -16.1249 -24.9996
rfingers 7.12502
rthumb 10.0797 -54.7382
lclavicle 3.65764e-014 5.56597e-014
lhumerus -37.8771 11.5553 78.8882
lradius 37.0256
lwrist 6.43943
lhand -20.0978 -3.90723
lfingers 7.12502
lthumb 6.24539 25.9807
rfemur -34.1515 0.212635 17.4642
rtibia 33.5402
rfoot -5.18872 0.566876
rtoes -0.208838
lfemur 10.1326 -5.65076 -24.2853
ltibia 32.8266
lfoot -5.69102 -13.8889
ltoes 11.4044
3202
root 0.534281 17.138 28.2387 -178.798 -160.092 -179.681
lowerback 11.5274 1.13049 -2.25972
upperback 3.38622 1.36123 4.16197
thorax -3.07144 0.665286 5.45194
lowerneck -4.5751 3.18001 -2.5615
upperneck 27.4864 4.94071 -1.03855
head 9.34838 1.88908 0.525248
rclavicle 3.20043e-014 -4.92986e-014
rhumerus -40.8299 -30.8668 -50.2521
rradius 18.552
rwrist -0.458982
rhand -16.3225 -24.4922
rfingers 7.12502
rthumb 9.88907 -54.24
lclavicle 3.20043e-014 -4.92986e-014
lhumerus -37.7771 11.8256 79.0026
lradius 36.8085
lwrist 6.6055
lhand -20.2099 -4.18489
lfingers 7.12502
lthumb 6.13719 25.7062
rfemur -33.5901 0.230063 17.3632
rtibia 33.9732
rfoot -4.9603 0.175576
rtoes -0.527583
lfemur 8.90663 -5.39824 -23.9756
ltibia 35.5069
lfoot -2.95558 -14.0512
ltoes 11.3032
3203
root 0.456395 17.1367 28.4067 -179.327 -160.806 -178.383
lowerback 11.4145 1.14595 -3.24321
upperback 3.37549 1.26079 3.76254
thorax -3.01902 0.61896 5.60704
lowerneck -4.48126 3.18794 -2.64031
upperneck 27.4658 4.87806 -0.701296
head 9.31057 1.89025 0.646767
rclavicle -1.27222e-014 2.54444e-014
rhumerus -40.413 -32.3218 -49.9201
rradius 18.3318
rwrist -0.640571
rhand -15.9581 -23.5653
rfingers 7.12502
rthumb 10.2406 -53.296
lclavicle -1.27222e-014 2.54444e-014
lhumerus -37.4677 11.914 78.9162
lradius 36.5849
lwrist 6.46754
lhand -19.8189 -4.09276
lfingers 7.12502
lthumb 6.51469 25.787
rfemur -32.9267 -0.383142 16.1152
rtibia 34.276
rfoot -4.86487 0.322289
rtoes -1.91626
lfemur 7.55718 -5.40361 -24.9759
ltibia 38.4063
lfoot -0.637082 -14.0566
ltoes 11.1305
3204
root 0.364826 17.1742 28.5656 -179.32 -161.295 -179.938
lowerback 11.7561 1.09003 -1.80378
upperback 3.51834 1.35548 4.13904
thorax -3.04797 0.658312 5.16541
lowerneck -3.80067 3.25432 -1.57834
upperneck 26.3595 5.05017 -1.79245
head 8.85189 1.99965 0.085601
rclavicle -8.94531e-015 -2.22639e-014
rhumerus -40 -33.4886 -49.9136
rradius 18.6376
rwrist -1.09111
rhand -13.9353 -22.2241
rfingers 7.12502
rthumb 12.1915 -51.8488
lclavicle -8.94531e-015 -2.22639e-014
lhumerus -37.2111 11.7479 78.8899
lradius 36.7168
lwrist 6.72849
lhand -19.4957 -3.74794
lfingers 7.12502
lthumb 6.82665 26.122
rfemur -31.7232 0.16102 17.6759
rtibia 34.4736
rfoot -4.86379 -0.24905
rtoes 0.725304
lfemur 6.54896 -5.13865 -22.8928
ltibia 41.3267
lfoot 1.56063 -14.2941
ltoes 11.2616
3205
root 0.286319 17.2071 28.7276 -179.162 -161.712 -181.273
lowerback 11.91 1.06435 -0.476077
upperback 3.56761 1.4873 4.52381
thorax -3.07316 0.718658 4.79321
lowerneck -4.83126 3.10904 -2.2096
upperneck 27.4832 4.79688 -0.946486
head 9.40097 1.87158 0.490473
rclavicle 3.04141e-014 -3.65764e-014
rhumerus -38.11 -30.7253 -53.2493
rradius 19.6519
rwrist -1.80219
rhand -16.7996 -27.9181
rfingers 7.12502
rthumb 9.42875 -57.6872
lclavicle 3.04141e-014 -3.65764e-014
lhumerus -37.014 11.4513 79.1676
lradius 36.8261
lwrist 7.41357
lhand -19.5327 -4.13451
lfingers 7.12502
lthumb 6.79093 25.7366
rfemur -30.7971 0.611881 19.0065
rtibia 34.6226
rfoot -4.86737 -0.80069
rtoes 3.39946
lfemur 5.23031 -4.74762 -21.0566
ltibia 44.2053
lfoot 3.97451 -14.1124
ltoes 11.3396
3206
root 0.212122 17.2378 28.8935 -179.232 -162.164 -181.919
lowerback 11.9099 1.11625 0.268126
upperback 3.62928 1.64711 4.73641
thorax -3.00873 0.794397 4.57007
lowerneck -5.45837 2.95661 -2.47957
upperneck 28.3036 4.56968 -0.541411
head 9.79943 1.76034 0.67762
rclavicle -2.22639e-014 -3.18055e-014
rhumerus -37.181 -30.5471 -54.0262
rradius 20.0328
rwrist -3.26918
rhand -17.3934 -27.7201
rfingers 7.12502
rthumb 8.85576 -57.5143
lclavicle -2.22639e-014 -3.18055e-014
lhumerus -36.7614 11.2256 79.4327
lradius 36.7407
lwrist 7.71283
lhand -19.4244 -4.73784
lfingers 7.12502
lthumb 6.89543 25.1299
rfemur -29.7729 0.589513 19.6959
rtibia 34.6058
rfoot -5.03185 -1.0336
rtoes 4.33039
lfemur 3.96672 -4.42347 -20.0459
ltibia 47.1253
lfoot 5.78852 -14.0423
ltoes 8.39153
3207
root 0.135402 17.249 29.0497 -179.415 -162.637 -182.482
lowerback 11.9844 1.15051 0.808201
upperback 3.72521 1.75889 4.91677
thorax -2.94757 0.846906 4.43657
lowerneck -5.12675 2.94837 -2.20694
upperneck 27.8866 4.54431 -0.71
head 9.5961 1.77317 0.55933
rclavicle -2.34566e-014 -2.38542e-014
rhumerus -36.0835 -30.1498 -55.052
rradius 20.4138
rwrist -5.0064
rhand -18.5301 -26.6707
rfingers 7.12502
rthumb 7.75871 -56.5083
lclavicle -2.34566e-014 -2.38542e-014
lhumerus -36.5508 11.4586 79.4111
lradius 36.6256
lwrist 7.60768
lhand -19.1514 -5.24756
lfingers 7.12502
lthumb 7.15899 24.6114
rfemur -28.7208 0.340396 20.3887
rtibia 34.6259
rfoot -5.2914 -1.17618
rtoes 4.25472
lfemur 2.61925 -3.97429 -19.1196
ltibia 49.8984
lfoot 7.77743 -14.3624
ltoes 4.17014
3208
root 0.0654403 17.2617 29.1986 -179.627 -163.042 -182.814
lowerback 12.0927 1.23937 1.15375
upperback 3.81784 1.9203 5.03855
thorax -2.91442 0.925277 4.3444
lowerneck -5.74872 2.47472 -3.86786
upperneck 28.6978 3.75199 0.916594
head 9.94218 1.38916 1.3574
rclavicle 1.21259e-014 1.59028e-014
rhumerus -34.9177 -29.9107 -55.8406
rradius 20.6118
rwrist -5.28316
rhand -17.7557 -25.9705
rfingers 7.12502
rthumb 8.50614 -55.7792
lclavicle 1.21259e-014 1.59028e-014
lhumerus -36.2205 11.6839 79.442
lradius 36.4095
lwrist 7.68029
lhand -18.9568 -5.96522
lfingers 7.12502
lthumb 7.34685 23.8872
rfemur -27.7019 -0.0284015 20.8468
rtibia 34.5244
rfoot -5.49615 -1.17885
rtoes 4.794
lfemur 1.24362 -3.72392 -18.3974
ltibia 52.6621
lfoot 10.6593 -13.8734
ltoes 4.80933
3209
root 0.0043434 17.2898 29.3575 -179.829 -163.561 -183.365
lowerback 12.1374 1.29312 1.91757
upperback 3.93951 2.08026 5.18349
thorax -2.80054 1.00245 4.04046
lowerneck -5.51525 2.37312 -3.20959
upperneck 28.3951 3.66098 0.299683
head 9.81742 1.36012 1.01201
rclavicle 1.61016e-014 -6.99722e-014
rhumerus -33.6559 -29.5979 -56.6356
rradius 20.4837
rwrist -6.01386
rhand -17.7686 -25.6639
rfingers 7.12502
rthumb 8.49361 -55.4731
lclavicle 1.61016e-014 -6.99722e-014
lhumerus -35.9336 11.7403 79.5337
lradius 36.3812
lwrist 7.5939
lhand -18.5152 -6.06361
lfingers 7.12502
lthumb 7.77313 23.7735
rfemur -26.4666 -0.710002 21.4861
rtibia 34.2977
rfoot -5.8518 -0.91833
rtoes 6.24484
lfemur -0.000869962 -3.52814 -17.5373
ltibia 55.3413
lfoot 12.9153 -13.5712
ltoes 3.39988
3210
root -0.0560016 17.333 29.525 -179.851 -164.192 -184.471
lowerback 12.1157 1.20078 3.22308
upperback 3.99412 2.11203 5.41964
thorax -2.69362 1.01712 3.54756
lowerneck -5.74176 2.20398 -3.38592
upperneck 28.7135 3.38608 0.618244
head 9.97179 1.24372 1.13582
rclavicle 2.22639e-014 5.725e-014
rhumerus -32.4717 -29.5846 -57.3465
rradius 20.2314
rwrist -6.51308
rhand -18.3641 -25.0901
rfingers 7.12502
rthumb 7.91888 -54.9217
lclavicle 2.22639e-014 5.725e-014
lhumerus -35.9426 12.107 79.3023
lradius 36.5495
lwrist 7.075
lhand -18.0392 -5.34158
lfingers 7.12502
lthumb 8.23252 24.478
rfemur -25.1125 -1.44927 22.6794
rtibia 33.8833
rfoot -6.1891 -0.698158
rtoes 7.02616
lfemur -1.32613 -3.52671 -16.0802
ltibia 57.9715
lfoot 14.9618 -12.8123
ltoes 3.51552
